<svg xmlns="http://www.w3.org/2000/svg" viewBox="0 0 61 54.5"><defs><style>.cls-1{fill:#f0f0f1;}.cls-1,.cls-5{stroke:#000;stroke-miterlimit:10;stroke-width:0.05px;}.cls-2{fill:#e8576c;}.cls-3{fill:#6868e6;}.cls-4{fill:#494e6a;}.cls-5{fill:#61568c;}.cls-6{fill:#ff9e45;}</style></defs><title>Logo</title><g id="Layer_2" data-name="Layer 2"><g id="Layer_1-2" data-name="Layer 1"><polygon class="cls-1" points="58.29 54.09 33.3 40.09 34.62 37.69 59.61 51.69 58.29 54.09"/><polygon class="cls-1" points="3.57 54.4 2.21 52.02 26.95 37.58 28.31 39.96 3.57 54.4"/><polygon class="cls-2" points="2.41 54.23 0 52.82 29.28 2.37 31.69 3.77 2.41 54.23"/><polygon class="cls-3" points="58.46 53.41 30.52 3.45 32.89 2.1 60.82 52.05 58.46 53.41"/><polygon class="cls-4" points="0.02 54.5 0 52.51 60.98 52.23 61 54.21 0.02 54.5"/><path class="cls-5" d="M26.1,38.06c5.4-3.42,1.8-6.83,5.4-3.42S36,38.06,36,38.06l-1.8,2.56H27.9Z"/><path class="cls-6" d="M27.25,5.45s4-12.27,8,0"/></g></g></svg>